<?xml version="1.0" encoding="iso-8859-1"?>
<!-- Uploaded to: SVG Repo, www.svgrepo.com, Generator: SVG Repo Mixer Tools -->
<svg fill="#000000" height="800px" width="800px" version="1.1" id="Layer_1" xmlns="http://www.w3.org/2000/svg" xmlns:xlink="http://www.w3.org/1999/xlink" 
	 viewBox="0 0 512 512" xml:space="preserve">
<g>
	<g>
		<circle cx="139.636" cy="384" r="11.636"/>
	</g>
</g>
<g>
	<g>
		<circle cx="407.273" cy="384" r="11.636"/>
	</g>
</g>
<g>
	<g>
		<path d="M498.036,262.982l-34.909-25.6l-33.745-101.236c-1.164-4.655-5.818-8.145-10.473-8.145H314.182
			c-6.982,0-11.636,4.655-11.636,11.636v232.727H196.655c-5.818-26.764-29.091-46.545-57.018-46.545
			c-27.927,0-51.2,19.782-57.018,46.545H34.909c-6.982,0-11.636-4.655-11.636-11.636v-256c0-6.982,4.655-11.636,11.636-11.636
			h267.636c0,6.982,4.655,11.636,11.636,11.636s11.636-4.655,11.636-11.636V81.455c0-6.982-4.655-11.636-11.636-11.636H34.909
			C15.127,69.818,0,84.945,0,104.727v256c0,19.782,15.127,34.909,34.909,34.909h47.709c5.818,26.764,29.091,46.545,57.018,46.545
			c27.927,0,51.2-19.782,57.018-46.545h117.527c6.982,0,11.636-4.655,11.636-11.636V151.273h84.945l26.764,81.455h-23.273
			l3.491-6.982c2.327-5.818,0-12.8-4.655-15.127c-4.655-2.327-12.8,0-15.127,4.655l-9.309,17.455h-27.927
			c-6.982,0-11.636,4.655-11.636,11.636S353.745,256,360.727,256h89.6l33.745,25.6c2.327,2.327,4.655,5.818,4.655,9.309v69.818
			c0,6.982-4.655,11.636-11.636,11.636h-12.8c-5.818-26.764-29.091-46.545-57.018-46.545c-32.582,0-58.182,25.6-58.182,58.182
			c0,32.582,25.6,58.182,58.182,58.182c27.927,0,51.2-19.782,57.018-46.545h12.8c19.782,0,34.909-15.127,34.909-34.909v-69.818
			C512,280.436,507.345,269.964,498.036,262.982z M139.636,418.909c-19.782,0-34.909-15.127-34.909-34.909
			c0-19.782,15.127-34.909,34.909-34.909c19.782,0,34.909,15.127,34.909,34.909C174.545,403.782,159.418,418.909,139.636,418.909z
			 M407.273,418.909c-19.782,0-34.909-15.127-34.909-34.909c0-19.782,15.127-34.909,34.909-34.909
			c19.782,0,34.909,15.127,34.909,34.909C442.182,403.782,427.055,418.909,407.273,418.909z"/>
	</g>
</g>
<g>
	<g>
		<path d="M251.345,211.782L181.527,153.6c-3.491-2.327-8.145-3.491-12.8-1.164c-3.491,2.327-5.818,5.818-5.818,10.473v23.273
			H81.455c-6.982,0-11.636,4.655-11.636,11.636s4.655,11.636,11.636,11.636h93.091c6.982,0,11.636-4.655,11.636-11.636v-10.473
			l39.564,33.745l-39.564,33.745v-10.473c0-6.982-4.655-11.636-11.636-11.636H81.455c-6.982,0-11.636,4.655-11.636,11.636
			S74.473,256,81.455,256h81.455v23.273c0,4.655,2.327,8.146,6.982,10.473c1.164,1.164,3.491,1.164,4.655,1.164
			c2.327,0,5.818-1.164,6.982-2.327l69.818-58.182c2.327-2.327,4.655-5.818,4.655-9.309C256,217.6,254.836,214.109,251.345,211.782z
			"/>
	</g>
</g>
</svg>